<svg width="22" height="27" viewBox="0 0 22 27" fill="none" xmlns="http://www.w3.org/2000/svg">
<path d="M21.2899 8.81864C20.9908 9.03754 20.6913 9.2371 20.4149 9.46478C20.1772 9.66063 19.9568 9.87994 19.7457 10.1047C19.5813 10.2799 19.4297 10.4708 19.2965 10.6709C19.1506 10.8902 19.0174 11.1211 18.9063 11.3597C18.7895 11.6108 18.6913 11.8729 18.6105 12.1381C18.5216 12.4297 18.4511 12.7281 18.4344 13.0355C18.42 13.2999 18.3923 13.5643 18.3939 13.8286C18.3967 14.2579 18.4359 14.6835 18.5276 15.1061C18.6162 15.5147 18.7487 15.9061 18.9243 16.2823C19.0746 16.6045 19.2613 16.9068 19.4746 17.1936C19.7622 17.5804 20.0971 17.9211 20.4606 18.2331C20.8102 18.533 21.1886 18.7942 21.6065 18.9936C21.7372 19.056 21.8656 19.1231 22 19.1906C21.9955 19.2195 21.9957 19.2475 21.9864 19.2718C21.8438 19.6415 21.7029 20.012 21.5553 20.3798C21.3737 20.8325 21.155 21.2685 20.9181 21.6935C20.7146 22.0589 20.4896 22.4134 20.258 22.7619C19.9078 23.2886 19.5307 23.7969 19.1276 24.2842C18.7143 24.7839 18.2639 25.248 17.7161 25.6049C17.3103 25.8693 16.8677 26.055 16.3879 26.117C15.9611 26.1722 15.5323 26.1456 15.1096 26.041C14.7061 25.9413 14.3133 25.8135 13.9258 25.6635C13.5908 25.5337 13.252 25.4081 12.9059 25.3126C12.2805 25.1401 11.6426 25.0858 10.9935 25.1549C10.4863 25.2089 9.99785 25.3314 9.52027 25.5035C9.23773 25.6054 8.95835 25.7161 8.67622 25.8193C8.34197 25.9416 8.00073 26.043 7.65167 26.1115C7.24995 26.1904 6.84328 26.2082 6.44101 26.1183C6.26874 26.0797 6.10018 26.0159 5.93696 25.947C5.40782 25.7234 4.97098 25.3662 4.56157 24.9727C4.14325 24.5705 3.77266 24.1262 3.4262 23.6615C3.2084 23.3697 2.98319 23.0828 2.77869 22.7817C2.5539 22.4509 2.34323 22.1101 2.13791 21.7666C1.98361 21.5086 1.83905 21.2441 1.70559 20.9748C1.56213 20.6853 1.43389 20.3879 1.30428 20.0917C1.20951 19.875 1.11693 19.6568 1.03491 19.435C0.919697 19.1234 0.81395 18.8082 0.706832 18.4937C0.662806 18.3643 0.623442 18.2332 0.585724 18.1018C0.526611 17.896 0.464754 17.6905 0.414281 17.4824C0.295093 16.9905 0.184821 16.4966 0.127215 15.9925C0.0971786 15.7295 0.0432767 15.4679 0.0317556 15.2043C0.00926223 14.6934 0.00706776 14.1817 0.000347163 13.6702C-0.00527619 13.2485 0.0583637 12.8334 0.122415 12.4177C0.195656 11.9429 0.311689 11.4807 0.463794 11.0253C0.626048 10.5395 0.836718 10.0761 1.09443 9.63512C1.38959 9.13012 1.73399 8.66077 2.14641 8.24327C2.5587 7.82619 3.01748 7.47109 3.52194 7.171C3.89212 6.95073 4.27986 6.77009 4.68337 6.62608C5.10937 6.47411 5.54977 6.3733 6.00046 6.32379C6.20003 6.30184 6.40027 6.28347 6.60065 6.27098C6.86193 6.25466 7.12075 6.28443 7.37764 6.33051C7.73246 6.39401 8.08508 6.46629 8.42619 6.58658C8.76085 6.70453 9.09633 6.82057 9.43194 6.9355C9.78978 7.05798 10.1465 7.18403 10.5074 7.29718C10.6851 7.35286 10.8712 7.3818 11.0531 7.42487C11.1589 7.44983 11.2636 7.44023 11.3647 7.41115C11.6625 7.32543 11.9614 7.24245 12.2547 7.14315C12.7466 6.97678 13.2326 6.793 13.7246 6.6269C14.2221 6.45902 14.7312 6.32736 15.251 6.25672C15.644 6.20337 16.0412 6.19432 16.4403 6.22723C16.7965 6.25658 17.1458 6.31913 17.496 6.38085C17.6617 6.41006 17.8261 6.45189 17.9874 6.50045C18.4069 6.6269 18.8195 6.77544 19.2073 6.9809C19.6187 7.19898 20.0037 7.45696 20.3558 7.76597C20.6928 8.06182 20.9855 8.39497 21.2562 8.74965C21.2742 8.7731 21.2825 8.80396 21.2894 8.81864H21.2899Z" fill="black"/>
<path d="M16.4702 0C16.5158 0.270058 16.5185 0.516388 16.5037 0.761896C16.477 1.20491 16.4073 1.64243 16.2751 2.06665C16.1706 2.40213 16.0318 2.72445 15.8657 3.0351C15.676 3.38978 15.4519 3.72101 15.2038 4.03633C14.9839 4.31572 14.7387 4.57233 14.4809 4.81674C14.1559 5.12479 13.8016 5.39636 13.4143 5.62075C13.0219 5.84801 12.6059 6.02769 12.1601 6.11478C11.8793 6.16964 11.59 6.18281 11.3038 6.2075C11.2186 6.2149 11.1312 6.1979 11.032 6.19131C11.0215 6.0964 11.0069 6.00725 11.0026 5.91755C10.9887 5.62925 11.0078 5.34315 11.0459 5.05649C11.1282 4.43888 11.3316 3.86283 11.6121 3.31023C11.905 2.73281 12.2852 2.2178 12.7343 1.75462C12.9622 1.5194 13.211 1.30462 13.4878 1.12645C13.7173 0.978738 13.9448 0.825673 14.1846 0.696336C14.4892 0.532024 14.8048 0.387188 15.1375 0.286242C15.3686 0.216156 15.5994 0.141955 15.8351 0.0903851C16.0388 0.0458098 16.249 0.0304484 16.4701 0.000411465L16.4702 0Z" fill="black"/>
</svg>
