<?xml version="1.0" encoding="UTF-8" standalone="no"?>
<svg
   width="62"
   height="111"
   viewBox="0 0 62 111"
   fill="none"
   version="1.1"
   id="svg12"
   xmlns="http://www.w3.org/2000/svg"
   xmlns:svg="http://www.w3.org/2000/svg">
  <defs
     id="defs12">
    <clipPath
       clipPathUnits="userSpaceOnUse"
       id="clipPath13">
      <rect
         style="fill:#ffffff"
         id="rect13"
         width="31"
         height="111"
         x="76"
         y="-12" />
    </clipPath>
  </defs>
  <rect
     x="1.5"
     y="1.5"
     width="59"
     height="108"
     rx="6.5"
     fill="white"
     stroke="#D6D6D6"
     stroke-width="3"
     id="rect1" />
  <rect
     x="10"
     y="39"
     width="42"
     height="3"
     rx="1.5"
     fill="#BDBDBD"
     id="rect2" />
  <rect
     x="10"
     y="60"
     width="42"
     height="3"
     rx="1.5"
     fill="#BDBDBD"
     id="rect3" />
  <rect
     x="10"
     y="11"
     width="42"
     height="23"
     rx="4"
     fill="#BDBDBD"
     id="rect4" />
  <rect
     x="10"
     y="45"
     width="42"
     height="3"
     rx="1.5"
     fill="#BDBDBD"
     id="rect5" />
  <rect
     x="10"
     y="66"
     width="42"
     height="3"
     rx="1.5"
     fill="#BDBDBD"
     id="rect6" />
  <rect
     x="10"
     y="51"
     width="15"
     height="3"
     rx="1.5"
     fill="#BDBDBD"
     id="rect7" />
  <rect
     x="10"
     y="72"
     width="15"
     height="3"
     rx="1.5"
     fill="#BDBDBD"
     id="rect8" />
  <circle
     cx="12.5"
     cy="100.5"
     r="2.5"
     fill="#BDBDBD"
     id="circle8" />
  <circle
     cx="21.5"
     cy="100.5"
     r="2.5"
     fill="#BDBDBD"
     id="circle9" />
  <circle
     cx="30.5"
     cy="100.5"
     r="2.5"
     fill="#BDBDBD"
     id="circle10" />
  <circle
     cx="39.5"
     cy="100.5"
     r="2.5"
     fill="#BDBDBD"
     id="circle11" />
  <circle
     cx="48.5"
     cy="100.5"
     r="2.5"
     fill="#BDBDBD"
     id="circle12" />
  <g
     id="g12"
     transform="translate(-45,12)"
     clip-path="url(#clipPath13)">
    <rect
       x="46.5"
       y="-10.5"
       width="59"
       height="108"
       rx="6.5"
       fill="#333333"
       stroke="#d6d6d6"
       stroke-width="3"
       id="rect1-4" />
    <rect
       x="55"
       y="27"
       width="42"
       height="3"
       rx="1.5"
       fill="#bdbdbd"
       id="rect2-8" />
    <rect
       x="55"
       y="48"
       width="42"
       height="3"
       rx="1.5"
       fill="#bdbdbd"
       id="rect3-8" />
    <rect
       x="55"
       y="-1"
       width="42"
       height="23"
       rx="4"
       fill="#bdbdbd"
       id="rect4-1" />
    <rect
       x="55"
       y="33"
       width="42"
       height="3"
       rx="1.5"
       fill="#bdbdbd"
       id="rect5-8" />
    <rect
       x="55"
       y="54"
       width="42"
       height="3"
       rx="1.5"
       fill="#bdbdbd"
       id="rect6-2" />
    <rect
       x="55"
       y="39"
       width="15"
       height="3"
       rx="1.5"
       fill="#bdbdbd"
       id="rect7-2" />
    <rect
       x="55"
       y="60"
       width="15"
       height="3"
       rx="1.5"
       fill="#bdbdbd"
       id="rect8-4" />
    <circle
       cx="57.5"
       cy="88.5"
       r="2.5"
       fill="#bdbdbd"
       id="circle8-6" />
    <circle
       cx="66.5"
       cy="88.5"
       r="2.5"
       fill="#bdbdbd"
       id="circle9-6" />
    <circle
       cx="75.5"
       cy="88.5"
       r="2.5"
       fill="#bdbdbd"
       id="circle10-3" />
    <circle
       cx="84.5"
       cy="88.5"
       r="2.5"
       fill="#bdbdbd"
       id="circle11-4" />
    <circle
       cx="93.5"
       cy="88.5"
       r="2.5"
       fill="#bdbdbd"
       id="circle12-9" />
  </g>
</svg>
