<svg width="24" height="24" viewBox="0 0 24 24" fill="none" xmlns="http://www.w3.org/2000/svg">
<path d="M19.0068 4.31649C18.8405 4.31649 18.6958 4.37891 18.552 4.5145C17.2337 5.74745 15.6607 7.29449 14.1404 8.78984C12.8643 10.0452 11.5497 11.3387 10.3827 12.4477C10.3808 12.753 10.3808 13.0603 10.3808 13.3646C10.7905 13.3646 11.1419 13.3676 11.4652 13.3715C12.6284 12.2702 13.9985 10.9241 15.3243 9.62091C16.7808 8.18897 18.2871 6.70826 19.5565 5.51627C19.8121 5.27631 19.8356 5.10854 19.7896 4.86273C19.7492 4.64228 19.4024 4.31551 19.0068 4.31551V4.31649ZM22.9271 4.2365C22.7598 3.33324 22.2552 2.50412 21.5073 1.9013C20.7856 1.31994 19.8976 1 19.0068 1C18.0446 1 17.1482 1.36286 16.4134 2.04957C15.4718 2.92941 14.4147 3.95557 13.3398 5.00905H2.70474C2.31572 5.00905 2 5.33679 2 5.74062V22.2684C2 22.5289 2.13343 22.7698 2.35049 22.9005C2.46043 22.9668 2.58259 23 2.70474 23C2.8269 23 2.9453 22.9678 3.05336 22.9044L7.96493 19.9996H20.6475C21.0365 19.9996 21.3522 19.6718 21.3522 19.268V13.0252L21.3851 8.27188C21.4903 8.17239 21.5956 8.07289 21.698 7.9773C22.7523 6.98723 23.1883 5.65869 22.9252 4.23845L22.9271 4.2365ZM20.7546 6.89066C18.2833 9.21123 14.9532 12.5901 12.4847 14.9136C12.2469 15.138 12.0158 15.2287 11.7066 15.2287C11.6963 15.2287 11.686 15.2287 11.6756 15.2287C11.2274 15.2199 10.7792 15.218 10.3272 15.218C9.75686 15.218 9.18179 15.2219 8.59638 15.2219V14.6327C8.59638 13.6904 8.59262 12.7482 8.60202 11.8059C8.60296 11.7035 8.65652 11.5728 8.72981 11.5045C11.3204 9.06881 14.7605 5.56504 17.3577 3.13718C17.8633 2.66507 18.443 2.46316 19.0078 2.46316C20.203 2.46316 21.3306 3.36446 21.5439 4.51352C21.7187 5.45482 21.4302 6.2576 20.7555 6.89164L20.7546 6.89066Z" fill="white"/>
</svg>
