<svg width="24" height="24" viewBox="0 0 24 24" fill="none" xmlns="http://www.w3.org/2000/svg">
<path d="M21.0368 12.0502C20.6396 12.0502 20.3173 12.3853 20.3173 12.7982V18.4362H7.89923C7.77453 18.4362 7.65175 18.4701 7.54335 18.5339L3.43884 20.9654V6.10106H8.73183C9.12895 6.10106 9.45125 5.76596 9.45125 5.35306C9.45125 4.94016 9.12895 4.60505 8.73183 4.60505H2.71942C2.3223 4.60505 2 4.94016 2 5.35306V22.252C2 22.5183 2.13621 22.7646 2.35779 22.8983C2.46906 22.9661 2.59472 23 2.71942 23C2.84412 23 2.96498 22.9671 3.07529 22.9023L8.08915 19.9322H21.0358C21.4329 19.9322 21.7552 19.5971 21.7552 19.1842V12.7982C21.7552 12.3853 21.4329 12.0502 21.0358 12.0502H21.0368ZM8.73855 11.5545C8.72895 12.518 8.73279 13.4814 8.73279 14.4448C8.73279 14.6373 8.73279 14.8298 8.73279 15.0472C9.33039 15.0472 9.91743 15.0432 10.5006 15.0432C10.9611 15.0432 11.4186 15.0452 11.8762 15.0542C11.8867 15.0542 11.8973 15.0542 11.9078 15.0542C12.2234 15.0542 12.4594 14.9614 12.7021 14.732C15.2219 12.3554 18.6214 8.9016 21.1442 6.52793C21.8329 5.87965 22.1274 5.05984 21.949 4.09641C21.7322 2.92254 20.5802 2 19.36 2C18.7835 2 18.1917 2.20645 17.6756 2.68916C15.0243 5.17154 11.5126 8.75499 8.86804 11.2443C8.79418 11.3142 8.73951 11.4478 8.73759 11.5525L8.73855 11.5545ZM10.1735 12.0342C11.3927 10.8763 12.7817 9.50798 14.1284 8.18152C15.6824 6.6506 17.2891 5.06682 18.6397 3.80319C18.8584 3.59874 19.0943 3.499 19.361 3.499C19.8905 3.499 20.4516 3.91988 20.537 4.38165C20.6157 4.80652 20.5121 5.10771 20.1792 5.42088C18.8862 6.63664 17.3505 8.1486 15.8656 9.6117C14.467 10.988 13.0224 12.4102 11.8081 13.5582C11.4253 13.5512 11.0071 13.5482 10.5016 13.5482C10.3922 13.5482 10.2819 13.5482 10.1726 13.5482C10.1726 13.0485 10.1726 12.5399 10.1755 12.0352L10.1735 12.0342Z" fill="white"/>
</svg>
