<svg width="55" height="39" viewBox="0 0 55 39" fill="none" xmlns="http://www.w3.org/2000/svg">
<path d="M41.2519 34.7895C41.2519 33.6985 41.2519 32.6051 41.2519 31.514C41.2519 31.4229 41.2519 31.3317 41.2543 31.2406C41.2566 31.1565 41.308 31.1191 41.3852 31.1191C41.8176 31.1191 42.2501 31.1191 42.6825 31.1191C42.7643 31.1191 42.8064 31.1589 42.8064 31.243C42.8064 31.3341 42.8064 31.4252 42.8064 31.5163C42.8064 33.313 42.8064 35.1096 42.8064 36.9063C42.8064 37.3151 42.7737 37.2754 43.1687 37.2754C44.2487 37.2754 45.3309 37.2754 46.4109 37.2754C46.5021 37.2754 46.5932 37.2778 46.6844 37.2801C46.7335 37.2824 46.7685 37.3058 46.7755 37.3595C46.7802 37.3922 46.7826 37.4273 46.7802 37.4623C46.7709 37.7801 46.8013 38.0978 46.7639 38.4132C46.453 38.509 46.1351 38.4506 45.8218 38.4529C44.4333 38.46 43.0448 38.4576 41.6587 38.4553C41.1982 38.4553 41.2519 38.5067 41.2519 38.0651C41.2496 36.9717 41.2519 35.8806 41.2519 34.7895Z" fill="#CC0000"/>
<path d="M38.2715 34.7943C38.2715 33.6915 38.2715 32.5864 38.2715 31.4837C38.2715 31.3926 38.2738 31.3014 38.2762 31.2103C38.2785 31.1589 38.3089 31.1285 38.3627 31.1239C38.3977 31.1215 38.4304 31.1192 38.4655 31.1192C38.8535 31.1192 39.2392 31.1169 39.6273 31.1192C39.8096 31.1215 39.8096 31.1239 39.8143 31.3178C39.8166 31.3739 39.8143 31.4323 39.8143 31.4883C39.8143 33.6845 39.8143 35.8807 39.8143 38.0769C39.8143 38.168 39.8119 38.2591 39.8119 38.3502C39.8096 38.418 39.7722 38.4507 39.7067 38.453C39.6834 38.453 39.6623 38.4553 39.639 38.4553C39.2416 38.4553 38.8419 38.4577 38.4445 38.4553C38.2808 38.4553 38.2762 38.4507 38.2738 38.2778C38.2715 38.0605 38.2738 37.8456 38.2738 37.6283C38.2715 36.682 38.2715 35.7382 38.2715 34.7943Z" fill="#CC0000"/>
<path d="M36.9268 32.8359C36.5691 32.8873 36.2419 32.934 35.917 32.9807C35.8375 32.9924 35.758 32.9971 35.6809 33.0088C35.4448 33.0438 35.4424 33.0462 35.3396 32.8195C35.1853 32.4738 34.9212 32.2565 34.5565 32.1654C34.0937 32.0509 33.6308 32.0696 33.1703 32.1794C33.1049 32.1957 33.0418 32.2238 32.9787 32.2518C32.3615 32.5158 32.3989 33.3499 32.8571 33.6162C33.0464 33.726 33.2428 33.8125 33.4508 33.8662C33.8482 33.9667 34.2479 34.0531 34.6453 34.1466C34.9773 34.2237 35.3092 34.3008 35.6294 34.4176C35.758 34.4643 35.8842 34.5134 36.0081 34.5695C36.7187 34.8966 37.0834 35.4643 37.1114 36.2353C37.1465 37.2142 36.7071 37.8661 35.8702 38.2375C35.557 38.3777 35.225 38.4595 34.8861 38.5039C34.1591 38.5997 33.4345 38.5973 32.7122 38.4501C32.3756 38.3824 32.0553 38.2726 31.7561 38.0997C31.2068 37.7796 30.8608 37.3053 30.6972 36.6955C30.6855 36.6535 30.6832 36.6114 30.6738 36.5507C31.1086 36.4783 31.534 36.4035 31.9595 36.3381C32.1371 36.3101 32.1465 36.3147 32.2096 36.4829C32.4083 37.0039 32.8033 37.2656 33.334 37.3614C33.7758 37.4408 34.2176 37.4385 34.6594 37.3591C34.8393 37.3264 35.01 37.268 35.1736 37.1838C35.6855 36.9198 35.7767 36.1395 35.2671 35.7867C35.0871 35.6629 34.8954 35.5671 34.6851 35.5134C34.3111 35.4199 33.9324 35.3358 33.5584 35.2423C33.2171 35.1582 32.8758 35.0671 32.5369 34.9737C32.3171 34.9129 32.1114 34.8171 31.9127 34.705C31.4031 34.4176 31.1086 33.9854 31.0315 33.4013C31.0011 33.1723 31.0011 32.9504 31.0338 32.7214C31.1063 32.2214 31.347 31.8266 31.7608 31.5392C32.1442 31.2729 32.5766 31.1444 33.0301 31.0743C33.6752 30.9738 34.3228 30.9832 34.9679 31.079C35.204 31.114 35.4331 31.1747 35.6598 31.2589C36.2068 31.4621 36.5761 31.8383 36.7819 32.378C36.8333 32.5088 36.8707 32.6513 36.9268 32.8359Z" fill="#CC0000"/>
<path fill-rule="evenodd" clip-rule="evenodd" d="M29.7329 38.456C29.8253 38.4554 29.9178 38.4548 30.0105 38.4548C30.0233 38.3339 29.9829 38.2402 29.9446 38.1514C29.9341 38.1269 29.9237 38.1028 29.9146 38.0786C29.1502 35.9853 28.3835 33.8919 27.6168 31.8009C27.5972 31.748 27.5773 31.6954 27.5575 31.6429C27.509 31.5142 27.4606 31.3859 27.4158 31.2565C27.3807 31.1537 27.3153 31.114 27.2101 31.1163C27.0824 31.1179 26.9536 31.1173 26.8246 31.1168C26.7599 31.1166 26.6951 31.1163 26.6304 31.1163C26.5245 31.1163 26.4183 31.1168 26.3121 31.1173C26.0994 31.1184 25.8863 31.1194 25.6743 31.1163C25.5668 31.1163 25.5037 31.1584 25.4756 31.2612C25.4666 31.2955 25.4534 31.3283 25.4403 31.3609C25.4364 31.3705 25.4326 31.3801 25.4289 31.3897C24.5944 33.6512 23.7599 35.9128 22.93 38.1744C22.9237 38.1913 22.9163 38.2082 22.9086 38.2254C22.8794 38.2916 22.848 38.3626 22.8739 38.4571H24.2648C24.3396 38.4571 24.3957 38.4338 24.4167 38.352C24.43 38.3055 24.4468 38.2602 24.4639 38.2143C24.4708 38.1957 24.4777 38.177 24.4845 38.1581C24.5339 38.0173 24.5841 37.8765 24.6343 37.7356C24.7407 37.437 24.8473 37.138 24.9473 36.838C25.0312 36.5846 25.0506 36.585 25.2247 36.5891C25.2497 36.5897 25.2778 36.5904 25.3096 36.5904C25.7351 36.5888 26.1605 36.5893 26.586 36.5899C26.7987 36.5901 27.0114 36.5904 27.2241 36.5904H27.736C27.8249 36.5904 27.8786 36.6254 27.909 36.7165C28.029 37.0701 28.1526 37.42 28.2767 37.771C28.2928 37.8167 28.3089 37.8624 28.3251 37.9081C28.3669 38.0253 28.4131 38.1414 28.4591 38.2572C28.4801 38.3099 28.501 38.3625 28.5214 38.4151C28.6524 38.473 28.788 38.4652 28.9234 38.4575C28.9789 38.4543 29.0344 38.4511 29.0895 38.4524C29.3037 38.459 29.5179 38.4575 29.7329 38.456ZM27.4743 35.3871C27.4369 35.2096 26.5276 32.5158 26.4341 32.3242C26.4058 32.4113 26.3794 32.4949 26.3536 32.5763C26.3069 32.7239 26.2626 32.864 26.2144 33.0041C26.0916 33.3639 25.9683 33.7237 25.845 34.0835C25.7217 34.4433 25.5984 34.8031 25.4757 35.1629C25.471 35.1762 25.4657 35.1896 25.4603 35.2031C25.4338 35.27 25.4064 35.3394 25.4453 35.4152C26.1325 35.4572 27.2195 35.4432 27.4743 35.3871Z" fill="#CC0000"/>
<path fill-rule="evenodd" clip-rule="evenodd" d="M20.6169 35.8139C20.5306 35.6801 20.4448 35.5468 20.3589 35.4155C20.3632 35.4107 20.3666 35.4063 20.3696 35.4026C20.378 35.3919 20.3824 35.3864 20.3893 35.3898C20.4922 35.3431 20.595 35.2987 20.7002 35.2567C21.2706 35.0207 21.6586 34.6071 21.8503 34.0254C22.0162 33.5231 22.0045 33.0184 21.8362 32.5161C21.7381 32.2194 21.5651 31.9694 21.329 31.7615C21.0695 31.5302 20.7656 31.383 20.4361 31.2802C20.0176 31.1494 19.5875 31.1237 19.1527 31.1237H15.8732C15.6591 31.1237 15.5627 31.1155 15.5198 31.1594C15.477 31.2033 15.4875 31.2991 15.4875 31.5068V38.0953C15.4875 38.135 15.488 38.1747 15.4886 38.2145C15.4892 38.2542 15.4898 38.2939 15.4898 38.3336C15.4898 38.4177 15.5366 38.4574 15.616 38.4574H16.9134C16.9952 38.4574 17.0419 38.4271 17.0419 38.3383C17.0404 38.2698 17.0409 38.2012 17.0414 38.1327C17.0417 38.0984 17.0419 38.0642 17.0419 38.0299C17.0431 37.6654 17.0431 37.3015 17.0431 36.9377C17.0431 36.5738 17.0431 36.2099 17.0443 35.8454C17.0443 35.6865 17.0653 35.6678 17.2219 35.6655L17.2242 35.6655C17.5998 35.6632 17.9731 35.6608 18.3486 35.6655C18.3992 35.6662 18.452 35.661 18.5047 35.6557C18.63 35.6432 18.7551 35.6308 18.8489 35.6982C18.948 35.769 19.0136 35.8867 19.0783 36.0026C19.0989 36.0397 19.1195 36.0766 19.141 36.1118C19.5899 36.836 20.0363 37.5626 20.4805 38.2916C20.5529 38.4131 20.6371 38.4621 20.782 38.4598C21.0705 38.4538 21.36 38.4545 21.6498 38.4552C21.8155 38.4556 21.9813 38.456 22.1471 38.4551C22.1528 38.4551 22.1586 38.4554 22.1646 38.4557C22.2009 38.4574 22.2433 38.4595 22.2874 38.4014C22.1943 38.2442 22.0912 38.0871 21.9872 37.9286C21.932 37.8444 21.8766 37.7599 21.8222 37.6748C21.6633 37.4248 21.502 37.1771 21.3407 36.9295C21.2743 36.8272 21.2079 36.7253 21.1417 36.6236C21.04 36.4674 20.9386 36.3118 20.8381 36.1561C20.7639 36.0423 20.6903 35.9279 20.6169 35.8139ZM17.8858 34.4792C17.9956 34.4789 18.1055 34.4787 18.2154 34.4787C18.2859 34.4787 18.3567 34.4785 18.4275 34.4784C18.6405 34.4779 18.8546 34.4775 19.0686 34.481C19.2532 34.4833 19.4332 34.4576 19.6086 34.4132C20.0948 34.2918 20.3799 33.9343 20.3963 33.432C20.3986 33.3642 20.3963 33.2965 20.3916 33.2287C20.3612 32.8385 20.1649 32.5699 19.8002 32.4297C19.5852 32.3479 19.3631 32.3059 19.134 32.3059C18.4959 32.3012 17.8601 32.3012 17.2243 32.3035C17.056 32.3035 17.0419 32.3175 17.0419 32.4717C17.0396 33.0839 17.0396 33.6983 17.0419 34.3104C17.0419 34.4646 17.0583 34.4763 17.2266 34.4787C17.4463 34.4802 17.6661 34.4797 17.8858 34.4792Z" fill="#CC0000"/>
<path fill-rule="evenodd" clip-rule="evenodd" d="M12.5302 34.5957C12.8364 34.6611 13.0912 34.7195 13.3273 34.834C13.7433 35.0372 14.0566 35.3386 14.1898 35.7919C14.4095 36.5348 14.2436 37.4927 13.3647 38.0114C12.8925 38.2894 12.3759 38.4039 11.8382 38.4436C11.65 38.4559 11.46 38.4556 11.2713 38.4554L8.08414 38.4553C8.06136 38.4553 8.03858 38.4555 8.0158 38.4556C7.94741 38.456 7.87903 38.4565 7.81065 38.453C7.74519 38.4506 7.70545 38.4156 7.70545 38.3455C7.70312 38.2427 7.70078 38.1399 7.70078 38.0395V31.965C7.70078 31.9084 7.70063 31.8516 7.70049 31.7948C7.70005 31.6241 7.69961 31.4528 7.70312 31.2827C7.70545 31.1496 7.73351 31.1239 7.86207 31.1192C7.89956 31.1176 7.93809 31.1182 7.97627 31.1187C7.99522 31.1189 8.0141 31.1192 8.03271 31.1192H11.1043C11.5601 31.1192 12.0136 31.1472 12.4554 31.2734C12.7429 31.3552 13.0117 31.472 13.2478 31.6542C13.5914 31.9182 13.7854 32.2663 13.8252 32.6962C13.8392 32.8528 13.8439 33.0163 13.8275 33.1728C13.7761 33.7382 13.4956 34.1541 12.986 34.4088C12.9046 34.4502 12.8186 34.4832 12.7189 34.5213C12.6612 34.5435 12.5988 34.5674 12.5302 34.5957ZM10.5059 37.3153C10.3852 37.3153 10.2643 37.3155 10.1432 37.3158C9.9009 37.3163 9.65822 37.3168 9.41659 37.3153C9.28335 37.313 9.2553 37.2849 9.2553 37.1564C9.25374 36.756 9.25426 36.3546 9.25478 35.9535C9.25504 35.7531 9.2553 35.5528 9.2553 35.3528C9.2553 35.271 9.29504 35.2266 9.37451 35.2219C9.38036 35.2219 9.3862 35.2213 9.39205 35.2208C9.39789 35.2202 9.40373 35.2196 9.40958 35.2196C10.1366 35.2243 10.8635 35.2289 11.5905 35.2359C11.7962 35.2383 11.9949 35.2967 12.1819 35.3785C12.4998 35.5186 12.6798 35.7686 12.7172 36.1121C12.764 36.5513 12.6237 37.0793 11.9692 37.2429C11.857 37.2709 11.7471 37.2943 11.6349 37.2966C11.2609 37.3083 10.8869 37.3176 10.5106 37.327C10.5059 37.3223 10.5059 37.3176 10.5059 37.3153ZM9.37214 34.0747H10.3282C10.5183 34.0732 10.7084 34.0737 10.8986 34.0742C10.9936 34.0745 11.0887 34.0747 11.1837 34.0747C11.3894 34.0724 11.5905 34.035 11.7822 33.9602C12.0603 33.8528 12.224 33.6518 12.2684 33.3551C12.2847 33.243 12.2871 33.1308 12.2754 33.0164C12.2403 32.6846 12.065 32.4743 11.7564 32.3645C11.5157 32.2804 11.2679 32.257 11.0178 32.2524C10.7591 32.2474 10.4992 32.2483 10.239 32.2493C10.1347 32.2496 10.0304 32.25 9.92614 32.25H9.92501C9.74306 32.25 9.5611 32.25 9.37915 32.2524C9.29734 32.2524 9.25293 32.2968 9.25293 32.3785C9.25059 32.9019 9.25059 33.4252 9.25059 33.9485C9.25059 34.0327 9.28799 34.0747 9.37214 34.0747Z" fill="#CC0000"/>
<path d="M40.1296 13.1986C40.1085 13.3411 40.1179 13.4509 40.1179 13.5607C40.1179 15.9064 40.1155 18.2521 40.1202 20.5978C40.1202 21.1492 40.0641 21.6912 39.8724 22.2076C39.2226 23.9505 37.9907 25.0205 36.151 25.3429C34.2202 25.6817 32.2871 24.7074 31.3521 23.0954C30.216 21.1375 29.0776 19.1796 27.9392 17.2241C27.2193 15.9859 26.497 14.7452 25.777 13.507C25.7209 13.4112 25.6625 13.3201 25.604 13.2266C25.5199 13.271 25.5503 13.3341 25.5456 13.3832C25.5409 13.4392 25.5432 13.4976 25.5432 13.5537C25.5432 15.7732 25.5432 17.9951 25.5432 20.2146C25.5432 20.7964 25.4871 21.3735 25.3469 21.9389C25.2744 22.2262 25.1809 22.5066 25.057 22.7753C24.4867 24.0159 23.5096 24.7705 22.2052 25.1186C21.698 25.2541 21.1767 25.3172 20.6508 25.3172C17.9275 25.3196 15.2043 25.3429 12.4834 25.3126C6.52728 25.2448 1.67219 21.1328 0.351472 15.6704C0.0475903 14.4135 -0.0646099 13.1355 0.0359047 11.8412C0.295373 8.48617 1.66284 5.66853 4.13363 3.39292C5.80965 1.84859 7.78021 0.853307 10.0149 0.383701C10.8541 0.208474 11.7003 0.115022 12.5558 0.115022C13.8204 0.117358 15.085 0.115022 16.3497 0.115022C16.4291 0.115022 16.5086 0.115019 16.5881 0.126701C16.6138 0.129037 16.6442 0.164082 16.6535 0.192118C16.6652 0.234172 16.6606 0.28324 16.6606 0.32763C16.6606 1.21544 16.6606 2.10326 16.6606 2.99107C16.6606 3.03546 16.6629 3.08219 16.6559 3.12658C16.6489 3.17564 16.6138 3.20601 16.5647 3.20835C16.4619 3.21302 16.359 3.21536 16.2585 3.21536C15.0851 3.21536 13.9116 3.21536 12.7381 3.21536C11.3193 3.21536 9.94945 3.46535 8.66614 4.07981C5.76524 5.46994 3.97468 7.74554 3.28276 10.8856C2.33605 15.9251 5.40292 20.4763 9.92608 21.815C10.7372 22.0557 11.567 22.1912 12.4156 22.1935C15.1037 22.1959 17.7919 22.1865 20.4801 22.2005C21.3029 22.2052 22.1608 21.5884 22.3689 20.7053C22.3922 20.6072 22.4063 20.5043 22.4133 20.4015C22.4226 20.2544 22.4203 20.1048 22.4203 19.9576C22.4203 15.0046 22.4203 10.0515 22.4203 5.09845C22.4203 4.97229 22.4133 4.84613 22.4296 4.7223C22.467 4.41391 22.6914 4.15457 22.9719 4.08448C23.2828 4.00738 23.5891 4.1242 23.7761 4.39989C23.8275 4.47465 23.8696 4.55643 23.914 4.63586C27.1234 10.166 30.3329 15.6961 33.5423 21.2263C33.5984 21.3244 33.6545 21.4249 33.713 21.5207C34.1407 22.2332 35.001 22.5136 35.6882 22.3244C36.4292 22.1211 36.9622 21.4786 37.0136 20.6866C37.0206 20.5628 37.0183 20.4366 37.0183 20.3104C37.0183 15.2429 37.0183 10.1777 37.0183 5.11014C37.0183 4.98398 37.0159 4.86015 37.0253 4.73398C37.051 4.42091 37.2614 4.16625 37.5512 4.08682C37.8434 4.00738 38.1567 4.11485 38.339 4.3625C38.4068 4.45362 38.4605 4.55409 38.5166 4.65222C41.7355 10.2034 44.9543 15.7546 48.1731 21.3057C48.2245 21.3945 48.2736 21.4856 48.3297 21.5697C48.7574 22.2239 49.5382 22.5183 50.2979 22.315C51.0342 22.1164 51.5672 21.4366 51.5952 20.6585C51.5999 20.5324 51.5976 20.4086 51.5976 20.2824C51.5976 13.7009 51.5976 7.1194 51.5976 0.537901C51.5976 0.435101 51.5999 0.3323 51.5976 0.229501C51.5976 0.143056 51.6443 0.110352 51.7238 0.110352C51.7799 0.110352 51.8383 0.110352 51.8944 0.110352C52.7383 0.110352 53.5798 0.110352 54.4237 0.110352C54.4798 0.110352 54.5382 0.110347 54.5943 0.112683C54.6574 0.115019 54.7018 0.145393 54.7042 0.215483C54.7065 0.294919 54.7088 0.374359 54.7088 0.453795C54.7088 7.14978 54.7065 13.8434 54.7112 20.5394C54.7112 21.5954 54.4517 22.5673 53.8276 23.4271C53.0632 24.4785 52.0394 25.121 50.7514 25.3383C48.7715 25.6724 46.836 24.6584 45.908 23.0463C44.073 19.8619 42.217 16.6914 40.368 13.514C40.3049 13.4182 40.2675 13.2967 40.1296 13.1986Z" fill="#CC0000"/>
<path d="M32.8595 12.1637C32.8595 12.0516 32.8595 11.9418 32.8595 11.8296C32.8595 9.47223 32.8618 7.11486 32.8595 4.75981C32.8595 4.0776 32.9811 3.42342 33.2686 2.80429C33.9722 1.29267 35.1503 0.36514 36.7866 0.0730957C38.7735 -0.28203 40.6903 0.70391 41.623 2.30665C42.6398 4.05657 43.659 5.8065 44.6782 7.55643C45.5197 9.00263 46.3589 10.4488 47.2004 11.8927C47.2565 11.9885 47.3149 12.0819 47.371 12.1707C47.4528 12.1544 47.4365 12.1006 47.4365 12.0609C47.4411 11.9581 47.4388 11.8553 47.4388 11.7525C47.4388 8.00734 47.4388 4.25983 47.4388 0.514662C47.4388 0.0637466 47.3757 0.115148 47.8362 0.115148C48.6216 0.112812 49.407 0.115148 50.1948 0.115148C50.2859 0.115148 50.3771 0.117484 50.4683 0.122157C50.5173 0.124493 50.5524 0.154865 50.5548 0.208601C50.5594 0.288037 50.5594 0.367477 50.5594 0.446913C50.5594 7.09617 50.5594 13.7454 50.5594 20.3947C50.5594 20.4741 50.5618 20.5535 50.5548 20.633C50.5244 20.9834 50.3163 21.2358 49.9867 21.3175C49.6758 21.3946 49.3836 21.2755 49.1943 20.9881C49.1312 20.8923 49.0774 20.7942 49.019 20.6961C45.8236 15.1846 42.6281 9.67316 39.4327 4.16171C39.3649 4.04255 39.2995 3.9234 39.2223 3.80892C38.8623 3.26922 38.1915 2.89074 37.3406 3.0683C36.6463 3.21315 36.104 3.8206 35.9942 4.53786C35.9661 4.72009 35.9661 4.9 35.9661 5.08223C35.9661 10.1498 35.9661 15.215 35.9661 20.2825C35.9661 20.4087 35.9708 20.5325 35.9614 20.6587C35.9357 20.9951 35.7347 21.2334 35.4121 21.3152C35.1129 21.3923 34.8184 21.2825 34.636 21.0231C34.5706 20.9297 34.5168 20.8292 34.4607 20.7311C31.651 15.8902 28.8436 11.0493 26.0339 6.20835C25.5991 5.46071 25.1643 4.71542 24.7342 3.96312C24.4841 3.52856 24.1311 3.22249 23.6449 3.09166C22.4691 2.77859 21.471 3.62201 21.3915 4.66168C21.3821 4.79719 21.3845 4.93504 21.3845 5.07055C21.3845 10.0236 21.3845 14.9767 21.3845 19.9297C21.3845 20.0325 21.3775 20.1353 21.3845 20.2381C21.4149 20.654 21.0035 21.1797 20.4471 21.1657C19.9235 21.1516 19.3999 21.1633 18.8763 21.1633C16.7912 21.1633 14.7061 21.1633 12.6233 21.1633C9.11936 21.1633 6.10158 19.0326 4.81593 15.979C4.29466 14.7407 4.07726 13.4464 4.18012 12.1076C4.484 8.08911 7.43866 5.19905 10.7463 4.47712C11.2933 4.35796 11.8426 4.27619 12.4036 4.27619C13.736 4.27385 15.0684 4.27385 16.4008 4.27385C16.4569 4.27385 16.5154 4.27619 16.5715 4.28086C16.6206 4.28553 16.6556 4.31357 16.6603 4.36263C16.6673 4.4187 16.665 4.47712 16.665 4.53319C16.665 5.39764 16.665 6.26442 16.665 7.12887C16.665 7.17326 16.6626 7.21999 16.6626 7.26438C16.6603 7.33447 16.6159 7.36251 16.5528 7.36484C16.4616 7.36718 16.3704 7.36718 16.2793 7.36718C15.0614 7.36718 13.8412 7.36017 12.6233 7.36951C11.5013 7.37886 10.4681 7.6966 9.55414 8.35779C8.32225 9.24794 7.58359 10.4465 7.35684 11.9534C6.95479 14.6402 8.68224 17.3037 11.5177 17.9345C11.9197 18.0233 12.3288 18.049 12.7402 18.049C14.2433 18.049 15.7463 18.049 17.2517 18.049C17.3662 18.049 17.4808 18.0443 17.593 18.028C17.9226 17.9789 18.1727 17.7429 18.2498 17.4182C18.2872 17.2616 18.2849 17.1028 18.2849 16.9415C18.2849 14.0725 18.2849 11.2035 18.2849 8.33443C18.2849 7.1499 18.2872 5.96537 18.2849 4.78318C18.2825 4.12666 18.3854 3.48884 18.6542 2.8884C19.3485 1.32771 20.5406 0.365137 22.219 0.0707571C24.2316 -0.284368 26.1414 0.731945 27.0717 2.34169C28.5233 4.85327 29.9867 7.35783 31.4453 9.86707C31.852 10.5656 32.2564 11.2642 32.6632 11.9604C32.7076 12.0375 32.759 12.11 32.8057 12.1847C32.8174 12.1777 32.8385 12.1707 32.8595 12.1637Z" fill="#CC0000"/>
</svg>
