<svg width="22" height="22" viewBox="0 0 22 22" fill="none" xmlns="http://www.w3.org/2000/svg">
<circle cx="11" cy="11" r="11" fill="white"/>
<path d="M20.0003 10.6198C19.9084 12.8389 19.1931 14.7916 17.8025 16.5023C17.5912 16.7627 17.3523 16.9557 16.9893 16.8868C16.4395 16.7811 16.2618 16.1899 16.6003 15.683C17.0276 15.0397 17.5131 14.4164 17.8224 13.718C19.7812 9.30725 17.2343 4.218 12.5341 3.11377C11.9935 2.98666 11.4299 2.94684 10.8739 2.89477C10.3486 2.84576 10.0193 2.57468 10.03 2.15198C10.0408 1.73387 10.4007 1.45054 10.9107 1.45513C14.9983 1.4873 18.6571 4.37728 19.6296 8.36996C19.8088 9.10662 19.8793 9.86779 20.0003 10.6182V10.6198Z" fill="#CC0000"/>
<path d="M13.1078 11.3569C12.7004 11.3569 12.293 11.3737 11.8871 11.3523C11.5594 11.3339 11.4736 11.4718 11.4782 11.7765C11.4935 12.5913 11.4843 13.4045 11.4797 14.2193C11.4782 14.5654 11.3358 14.838 11.0065 14.9805C10.7308 15.0984 10.4475 15.0509 10.279 14.8227C10.1397 14.6328 10.0416 14.3694 10.0325 14.1335C10.0018 13.3463 10.0095 12.5561 10.0263 11.7673C10.034 11.4473 9.91606 11.3477 9.60516 11.3538C8.81642 11.3691 8.02769 11.3615 7.23896 11.3584C6.70292 11.3554 6.34608 11.0567 6.34914 10.6218C6.3522 10.1883 6.70752 9.89735 7.24814 9.89582C8.03688 9.89276 8.82561 9.88357 9.61435 9.90195C9.9375 9.90961 10.0325 9.78862 10.0263 9.47925C10.011 8.69051 10.0171 7.90178 10.0233 7.11305C10.0263 6.57701 10.3296 6.21864 10.7584 6.2217C11.1903 6.22629 11.4797 6.58008 11.4828 7.1253C11.4874 7.90178 11.5012 8.67826 11.4767 9.45321C11.4644 9.81772 11.6023 9.91114 11.9423 9.90348C12.7433 9.88357 13.5442 9.89429 14.3468 9.89582C14.6959 9.89582 14.9609 10.0474 15.1033 10.3752C15.2228 10.6524 15.1661 10.9265 14.9425 11.1042C14.7756 11.2359 14.5413 11.3263 14.3284 11.3462C13.9241 11.3829 13.5151 11.3569 13.1078 11.3569Z" fill="#CC0000"/>
<path d="M10.7066 19.8852C9.8719 19.7397 9.02957 19.6218 8.20407 19.4334C7.96516 19.3798 7.68029 19.1669 7.58534 18.951C7.50111 18.7595 7.593 18.4303 7.71399 18.2235C7.86561 17.9616 8.16732 17.9264 8.46443 18.0152C10.4524 18.6048 12.3775 18.4517 14.2413 17.5297C14.6977 17.3046 15.1449 17.4409 15.3149 17.8268C15.488 18.2204 15.3088 18.6248 14.8417 18.8484C13.5399 19.4732 12.1723 19.8148 10.7066 19.8837V19.8852Z" fill="#CC0000"/>
<path d="M6.12122 17.1368C5.93284 17.3588 5.79654 17.6115 5.58519 17.7448C5.31564 17.9148 5.02158 17.8045 4.78114 17.5947C3.997 16.9147 3.33231 16.1336 2.81772 15.2315C2.69826 15.0233 2.57727 14.8104 2.49304 14.5868C2.35061 14.2054 2.49304 13.8409 2.82232 13.6786C3.17457 13.504 3.52376 13.6296 3.77033 13.9849C4.25429 14.6802 4.74438 15.3724 5.24825 16.054C5.38915 16.2454 5.60969 16.3756 5.76437 16.5594C5.88996 16.7064 5.97113 16.8917 6.12122 17.1383V17.1368Z" fill="#CC0000"/>
<path d="M1.50537 10.457C1.6478 9.65907 1.77032 8.85656 1.93879 8.06323C2.03528 7.60683 2.29411 7.40774 2.65861 7.39242C2.99554 7.37864 3.22374 7.53945 3.3386 7.84116C3.38914 7.97593 3.41059 8.14899 3.37077 8.28377C3.08897 9.23331 2.98329 10.1997 3.02617 11.1875C3.04149 11.5428 2.87608 11.8461 2.5223 11.8982C2.29411 11.9319 2.00924 11.8308 1.80708 11.7006C1.6815 11.6194 1.62942 11.3759 1.60339 11.1952C1.5697 10.9578 1.59573 10.7128 1.59573 10.4708C1.5651 10.4662 1.536 10.4616 1.50537 10.457Z" fill="#CC0000"/>
<path d="M4.21013 6.06557C3.57914 6.05331 3.2177 5.46674 3.52248 5.03026C3.8104 4.61828 4.16878 4.24765 4.53941 3.90306C4.80743 3.65495 5.18112 3.70855 5.44148 3.95206C5.7049 4.19864 5.77688 4.55548 5.54562 4.84801C5.23931 5.23395 4.8886 5.58926 4.53635 5.93539C4.43833 6.03034 4.26527 6.04719 4.21166 6.0671L4.21013 6.06557Z" fill="#CC0000"/>
</svg>
