<svg width="22" height="22" viewBox="0 0 22 22" fill="none" xmlns="http://www.w3.org/2000/svg">
<path d="M21.4138 10.6112C21.3074 13.1806 20.4793 15.4415 18.8692 17.4222C18.6245 17.7237 18.3478 17.9471 17.9276 17.8673C17.291 17.745 17.0853 17.0605 17.4772 16.4736C17.9719 15.7288 18.534 15.0071 18.8922 14.1985C21.1602 9.09152 18.2113 3.19901 12.7692 1.92049C12.1432 1.77331 11.4907 1.72721 10.847 1.66692C10.2388 1.61017 9.85751 1.29631 9.86992 0.806893C9.88234 0.322795 10.299 -0.00525599 10.8895 6.37576e-05C15.6223 0.037302 19.8586 3.38343 20.9847 8.00629C21.1921 8.85922 21.2737 9.74053 21.4138 10.6094V10.6112Z" fill="white"/>
<path d="M13.4338 11.4643C12.9621 11.4643 12.4904 11.4838 12.0205 11.459C11.641 11.4377 11.5417 11.5973 11.547 11.9502C11.5648 12.8935 11.5541 13.8351 11.5488 14.7785C11.547 15.1792 11.3821 15.4949 11.0009 15.6598C10.6817 15.7963 10.3536 15.7414 10.1586 15.4771C9.99722 15.2573 9.88373 14.9523 9.87309 14.6792C9.83762 13.7677 9.84649 12.8527 9.86599 11.9395C9.87486 11.5689 9.73832 11.4536 9.37835 11.4607C8.46513 11.4785 7.5519 11.4696 6.63868 11.4661C6.01804 11.4625 5.60487 11.1167 5.60842 10.6131C5.61197 10.1113 6.02336 9.77438 6.64932 9.7726C7.56254 9.76906 8.47577 9.75842 9.38899 9.7797C9.76315 9.78856 9.87309 9.64848 9.86599 9.29028C9.84826 8.37706 9.85536 7.46383 9.86245 6.55061C9.86599 5.92997 10.2171 5.51503 10.7136 5.51858C11.2137 5.5239 11.5488 5.93352 11.5524 6.56479C11.5577 7.46383 11.5736 8.36287 11.5453 9.26014C11.5311 9.68217 11.6907 9.79034 12.0843 9.78147C13.0117 9.75842 13.9392 9.77083 14.8683 9.7726C15.2726 9.7726 15.5794 9.94816 15.7443 10.3276C15.8826 10.6486 15.817 10.966 15.5581 11.1717C15.3648 11.3242 15.0935 11.4288 14.8471 11.4519C14.3789 11.4944 13.9055 11.4643 13.4338 11.4643Z" fill="white"/>
<path d="M10.6536 21.3396C9.68717 21.1711 8.71188 21.0346 7.7561 20.8165C7.47947 20.7544 7.14965 20.5079 7.0397 20.2579C6.94218 20.0362 7.04857 19.655 7.18866 19.4156C7.36421 19.1124 7.71354 19.0716 8.05755 19.1744C10.3592 19.8571 12.5882 19.6798 14.7462 18.6123C15.2747 18.3517 15.7925 18.5095 15.9893 18.9563C16.1897 19.4121 15.9822 19.8802 15.4414 20.1391C13.9341 20.8626 12.3506 21.258 10.6536 21.3378V21.3396Z" fill="white"/>
<path d="M5.34465 18.1568C5.12654 18.4139 4.96872 18.7065 4.72401 18.8608C4.41192 19.0576 4.07146 18.9299 3.79305 18.687C2.88515 17.8997 2.11556 16.9953 1.51975 15.9509C1.38143 15.7097 1.24135 15.4632 1.14382 15.2043C0.978907 14.7628 1.14382 14.3408 1.52507 14.1528C1.93292 13.9506 2.33722 14.0961 2.62271 14.5074C3.18306 15.3125 3.7505 16.114 4.3339 16.9031C4.49704 17.1248 4.75238 17.2755 4.93148 17.4883C5.07689 17.6585 5.17087 17.8731 5.34465 18.1586V18.1568Z" fill="white"/>
<path d="M0 10.4232C0.164912 9.49938 0.306772 8.5702 0.50183 7.65165C0.613545 7.12323 0.913224 6.8927 1.33526 6.87497C1.72537 6.85901 1.98959 7.0452 2.12258 7.39453C2.1811 7.55058 2.20592 7.75096 2.15982 7.907C1.83354 9.00642 1.71119 10.1253 1.76084 11.2691C1.77857 11.6805 1.58706 12.0316 1.17744 12.0919C0.913224 12.1309 0.583399 12.0139 0.34933 11.8631C0.203924 11.7691 0.143633 11.4872 0.113488 11.278C0.0744765 11.0031 0.104622 10.7194 0.104622 10.4392C0.0691568 10.4339 0.035465 10.4286 0 10.4232Z" fill="white"/>
<path d="M3.13191 5.33868C2.40133 5.32449 1.98284 4.64534 2.33572 4.13996C2.66909 3.66296 3.08403 3.23383 3.51316 2.83485C3.82348 2.54758 4.25615 2.60965 4.5576 2.89159C4.8626 3.17709 4.94594 3.59026 4.67818 3.92895C4.32353 4.37581 3.91746 4.7872 3.50961 5.18795C3.39612 5.2979 3.19574 5.3174 3.13368 5.34045L3.13191 5.33868Z" fill="white"/>
</svg>
